<svg id="Layer_1" data-name="Layer 1" xmlns="http://www.w3.org/2000/svg" width="81.5mm" height="77.47mm" viewBox="0 0 231.03 219.59"><defs><style>.cls-1{fill:#1d1d1b;}.cls-2{fill:#e0842f;stroke-width:2px;}.cls-2,.cls-3,.cls-4{stroke:#fff;stroke-miterlimit:10;}.cls-3{fill:#f3db3a;}.cls-4{fill:#e5a4b4;}</style></defs><path class="cls-1" d="M8.74,105.21l-.1,4-1,0,.1-4Z"/><path class="cls-1" d="M4.45,89.91c.93.15,1.7.27,2.3.38l1.58.26,1.41.22,1,.15a4.21,4.21,0,0,1,1.44.48,3.17,3.17,0,0,1,1,.93,3.67,3.67,0,0,1,.55,1.36,4.89,4.89,0,0,1,0,1.75,5.13,5.13,0,0,1-.53,1.67,3.64,3.64,0,0,1-1,1.13,3,3,0,0,1-1.24.59,4.23,4.23,0,0,1-1.51,0l-1-.16-1.41-.22-1.58-.24c-.61-.08-1.38-.2-2.3-.34l.18-1.2,1.23.22,2.77.44,1.08.17,1.14.17a2.61,2.61,0,0,0,2.13-.44,3.6,3.6,0,0,0,.68-4.16,2.65,2.65,0,0,0-1.93-1l-1.14-.18L8.27,91.7l-2.81-.42-1.19-.17Z"/><path class="cls-1" d="M16.37,82.79l-.3,1.11-1.31-.37-1.37-.37-1.08-.29-1.06-.28a2,2,0,0,0-1.25,0,1.29,1.29,0,0,0-.62.91,3,3,0,0,0,0,1.14,8.07,8.07,0,0,0,.3,1.46l.84.23,1.39.39,2,.51,1.22.31-.3,1.12-.87-.25c-.54-.16-1.35-.38-2.42-.67l-1.74-.46-2.13-.55.3-1.1.81.22h0A10.07,10.07,0,0,1,8.41,84a3.68,3.68,0,0,1,.07-1.16,2,2,0,0,1,1-1.3,2.2,2.2,0,0,1,1.71-.13l1.53.42,1.05.3,1.62.41Z"/><path class="cls-1" d="M9.28,76.2l-.42,1.22L7.67,77l.42-1.22Zm8.33,2.94-.37,1.09-1.36-.48L13.81,79l-1.57-.53-2-.67.37-1.09,1.86.67,1.55.54c1.07.37,1.94.66,2.59.87Z"/><path class="cls-1" d="M19.22,72.48,20,73s0,.11-.08.24-.09.23-.12.32a3.59,3.59,0,0,1-1.43,1.87,2.33,2.33,0,0,1-2.08,0l-1.61-.66-2.13-.87L12.12,75l-.8-.32.49-1.21L10.2,72.8l.4-1,1.61.65,1-2.43.79.32-1,2.43.84.35,1.05.44.7.28,1,.4a1.69,1.69,0,0,0,1.47,0A2.56,2.56,0,0,0,19,73c0-.08.07-.18.11-.3Z"/><path class="cls-1" d="M19.74,64.29,17.41,69a3.14,3.14,0,0,0,1.42.33,2.7,2.7,0,0,0,1.4-.41,3.41,3.41,0,0,0,.79-.69,6.1,6.1,0,0,0,.7-1.11c.12-.25.22-.49.31-.7l.17-.4.81.55a3.64,3.64,0,0,1-.15.36c-.08.2-.19.44-.32.7a5.91,5.91,0,0,1-1.17,1.7,4,4,0,0,1-1.38.91,3.77,3.77,0,0,1-1.38.23,3.62,3.62,0,0,1-1.54-.39,4.31,4.31,0,0,1-1.24-.88A4.23,4.23,0,0,1,15,68a3,3,0,0,1-.22-1.31,3.48,3.48,0,0,1,.34-1.31,3.17,3.17,0,0,1,.72-1,2.43,2.43,0,0,1,1-.55,3.24,3.24,0,0,1,1.33-.09A5.59,5.59,0,0,1,19.74,64.29Zm-1.24.65A2.45,2.45,0,0,0,17,64.87a1.79,1.79,0,0,0-1,1,1.92,1.92,0,0,0-.13,1.46,2.78,2.78,0,0,0,.94,1.31Z"/><path class="cls-1" d="M27.2,59.62a2.28,2.28,0,0,1-.14.24l-.19.33A14.92,14.92,0,0,1,25.66,62a5.35,5.35,0,0,1-1.2,1.07,3.48,3.48,0,0,1-1.83.63,3,3,0,0,1-1.74-.45,3.57,3.57,0,0,1-1.4-1.49,3.71,3.71,0,0,1-.32-2.09,6.09,6.09,0,0,1,.35-1.45,8.68,8.68,0,0,1,.69-1.44L17.3,55.05l.59-1,1.75,1.06,3.31,2,2.4,1.43ZM22.2,58l-.55-.33L21,57.26a7.48,7.48,0,0,0-.6,1.25,5.15,5.15,0,0,0-.28,1.13,2.61,2.61,0,0,0,.24,1.47,2.58,2.58,0,0,0,1.06,1.09,2.19,2.19,0,0,0,1.31.34,2.75,2.75,0,0,0,1.22-.4,4.14,4.14,0,0,0,.93-.77,5.85,5.85,0,0,0,.8-1.07l.05-.08.05-.08-.94-.57C24.3,59.21,23.4,58.68,22.2,58Z"/><path class="cls-1" d="M28.58,41.25l2,1.68q1.16.93,1.65,1.35l2.58,2.07,1,.81-.24,1.05c-2.48-.1-4.74-.16-6.8-.18l-3.56,0v0c1,.82,2.27,1.83,3.76,3l2.59,2.05-.72.89-1-.84-2.41-2-1.66-1.33L23.63,48.1l.29-1.2,3.62.05c2.28,0,4.4,0,6.38,0v0c-.59-.47-1.57-1.26-3-2.36s-2.43-1.93-3.09-2.47Z"/><path class="cls-1" d="M38.83,38.72l2.1,2.08.87.87-.44.52c-.26.31-.62.7-1.06,1.15a6.46,6.46,0,0,1-.93.79,4.59,4.59,0,0,1-1,.52,2.48,2.48,0,0,1-1.19.16,1.85,1.85,0,0,1-1.06-.53,1.82,1.82,0,0,1-.56-1.15,3,3,0,0,1,.25-1.43,7.12,7.12,0,0,1,.64-1.16,15.91,15.91,0,0,1,1.1-1.45,1.94,1.94,0,0,0-.87-.46,1.49,1.49,0,0,0-.89.12,2.84,2.84,0,0,0-.64.38,7.1,7.1,0,0,0-.69.62c-.15.15-.28.29-.38.41l-.41.47-.61-.77.28-.33c.15-.16.35-.38.61-.64a6.43,6.43,0,0,1,1.21-1,2.77,2.77,0,0,1,1.21-.39,2.44,2.44,0,0,1,1.11.21A4.75,4.75,0,0,1,38.83,38.72Zm.47,2-.45-.45-.63-.61a11,11,0,0,0-.7.9,5.46,5.46,0,0,0-.72,1.19,2,2,0,0,0-.18.84,1,1,0,0,0,.32.77,1.13,1.13,0,0,0,.76.36,1.63,1.63,0,0,0,.85-.2,4.1,4.1,0,0,0,.68-.44,7.55,7.55,0,0,0,.69-.61l.24-.26.31-.33-.35-.34C39.92,41.37,39.65,41.1,39.3,40.76Z"/><path class="cls-1" d="M46.11,36.53l.52.79-.18.18c-.1.09-.18.17-.26.23a3.48,3.48,0,0,1-2.11,1,2.33,2.33,0,0,1-1.85-.92l-1.15-1.32L39.56,34.8l-.92.82L38.07,35l1-.86-1.16-1.3.8-.71,1.15,1.3,2-1.74.57.64-2,1.74.6.7.74.85.5.56c.2.22.43.49.71.79a1.65,1.65,0,0,0,1.29.69,2.45,2.45,0,0,0,1.46-.74,2,2,0,0,0,.24-.21Z"/><path class="cls-1" d="M43.65,28.33l-1,.81-.79-1,1-.81Zm5.49,6.93-.9.72-.89-1.13c-.55-.7-1-1.27-1.37-1.72l-1-1.29-1.35-1.63.9-.73L45.71,31l1,1.28c.71.89,1.29,1.59,1.73,2.12Z"/><path class="cls-1" d="M54.45,26.76a4.47,4.47,0,0,1,.7,1.5,3.72,3.72,0,0,1,.05,1.59A3.53,3.53,0,0,1,54.73,31a3.49,3.49,0,0,1-.95,1,3.72,3.72,0,0,1-1.21.57,3.35,3.35,0,0,1-1.3.07,3.68,3.68,0,0,1-1.47-.58,4.34,4.34,0,0,1-1.2-1.18,4.29,4.29,0,0,1-.69-1.41A3.65,3.65,0,0,1,47.84,28a3.39,3.39,0,0,1,.47-1.3,3.49,3.49,0,0,1,1-1,3.65,3.65,0,0,1,1.27-.59,3.18,3.18,0,0,1,1.34,0,3.71,3.71,0,0,1,1.42.58A4.41,4.41,0,0,1,54.45,26.76Zm-.92.72a4.21,4.21,0,0,0-1-1,2.62,2.62,0,0,0-1.2-.49,2,2,0,0,0-.8,0,2.34,2.34,0,0,0-.75.35,2.12,2.12,0,0,0-.63.64,2.21,2.21,0,0,0-.28.82A2.7,2.7,0,0,0,49,29.05a3.69,3.69,0,0,0,.55,1.17,4.14,4.14,0,0,0,1,1,2.56,2.56,0,0,0,1.22.46,2,2,0,0,0,.77-.06,2.4,2.4,0,0,0,.72-.35,2,2,0,0,0,.61-.63,2.18,2.18,0,0,0,.3-.78,2.94,2.94,0,0,0-.07-1.21A3.93,3.93,0,0,0,53.53,27.48Z"/><path class="cls-1" d="M63.48,25.64l-1,.59-.68-1.18-.71-1.22-.58-1L60,21.93a2,2,0,0,0-.89-.88,1.34,1.34,0,0,0-1.09.22,3.1,3.1,0,0,0-.81.79,8.53,8.53,0,0,0-.81,1.26s.18.3.44.75.51.87.73,1.25.64,1.07,1.06,1.75l.66,1.08-1,.59s-.17-.29-.44-.78l-1.27-2.18-.92-1.54-1.14-1.88,1-.58.42.72h0A9.81,9.81,0,0,1,57,20.94a3.87,3.87,0,0,1,.86-.78,2,2,0,0,1,1.6-.26A2.23,2.23,0,0,1,60.72,21c.31.53.58,1,.8,1.38s.4.7.55.94.51.86.86,1.43Z"/><path class="cls-1" d="M68.45,20.7a1.77,1.77,0,0,1,.2,1,2,2,0,0,1-.31.92,3.5,3.5,0,0,1-.76.85,6.23,6.23,0,0,1-1.14.74l-.69.3-.4.16-.47-.84.47-.19c.28-.11.54-.24.81-.37a4.89,4.89,0,0,0,.57-.33,2.39,2.39,0,0,0,.52-.44,1.44,1.44,0,0,0,.31-.6.92.92,0,0,0-.1-.58.79.79,0,0,0-.35-.37,1.93,1.93,0,0,0-.55-.13,5,5,0,0,0-.9,0,7.64,7.64,0,0,1-1,0,2.5,2.5,0,0,1-1-.3,1.75,1.75,0,0,1-.65-.74,1.67,1.67,0,0,1-.17-1,2.2,2.2,0,0,1,.4-1,3,3,0,0,1,.71-.71,8.1,8.1,0,0,1,.88-.52l.66-.32.3-.13.51.83-.42.18c-.24.1-.51.22-.79.37a3,3,0,0,0-.55.34,1.57,1.57,0,0,0-.39.38,1,1,0,0,0-.23.55.81.81,0,0,0,.08.45.71.71,0,0,0,.39.37,1.81,1.81,0,0,0,.56.12c.24,0,.54,0,.93,0a7.81,7.81,0,0,1,.85,0,2.55,2.55,0,0,1,1,.3A1.61,1.61,0,0,1,68.45,20.7Z"/><path class="cls-1" d="M80.9,18l-.91.33-2.11.78-1.59.6-1.23.46c-.09-.27-.29-.84-.61-1.73s-.66-1.8-1-2.74c-.2-.52-.45-1.2-.77-2.05s-.66-1.73-1-2.63l1.22-.45L74.38,10l2.14-.81.89-.34.35,1-.86.31-2,.72-1,.38-.78.3c.19.52.38,1,.56,1.55s.36,1,.53,1.46l.73-.26.76-.28,2.15-.81,1-.39.35,1-1.13.41-2,.72-.78.3-.77.28c.33.87.58,1.55.78,2.06s.35.93.49,1.27l1-.35,1.25-.46,1.71-.65.78-.3Z"/><path class="cls-1" d="M88.66,15.81l-.26.08L88,16a16.48,16.48,0,0,1-2.12.48,5.39,5.39,0,0,1-1.6,0,3.6,3.6,0,0,1-1.77-.79,3.14,3.14,0,0,1-1-1.53,3.58,3.58,0,0,1,0-2,3.79,3.79,0,0,1,1.2-1.73,6,6,0,0,1,1.26-.82,8.67,8.67,0,0,1,1.48-.57L84.6,5.68l1.11-.31c0,.09.21.75.55,2s.68,2.46,1,3.71c.28,1,.54,1.89.77,2.69S88.5,15.23,88.66,15.81Zm-2.49-4.64L86,10.55c-.07-.23-.13-.45-.19-.68a6.88,6.88,0,0,0-1.3.49,5.19,5.19,0,0,0-1,.63,2.6,2.6,0,0,0-.83,1.23,2.71,2.71,0,0,0,0,1.52,2.2,2.2,0,0,0,.73,1.14,2.85,2.85,0,0,0,1.16.56,4.74,4.74,0,0,0,1.21.08,6.14,6.14,0,0,0,1.31-.24l.09,0,.1,0s-.11-.39-.29-1.05S86.55,12.51,86.17,11.17Z"/><path class="cls-1" d="M97.11,13.9,96,14.12l-.17-.83h0a9,9,0,0,1-1.12.93,3.6,3.6,0,0,1-1.4.64,2.08,2.08,0,0,1-1.67-.28A2.35,2.35,0,0,1,90.76,13c-.08-.38-.17-.84-.26-1.37s-.17-.92-.22-1.16c-.09-.43-.2-1-.34-1.6s-.22-1-.23-1.08l1.13-.23c0,.06.08.41.19,1s.21,1.13.29,1.5.15.75.25,1.24.17.84.22,1.05a2.28,2.28,0,0,0,.54,1.18,1,1,0,0,0,1,.21,3.48,3.48,0,0,0,1.34-.62,6.76,6.76,0,0,0,1-.83l-.15-.79c-.09-.47-.2-1.06-.34-1.77-.1-.5-.23-1.1-.38-1.8s-.23-1.08-.25-1.14l1.14-.23c0,.08.06.35.14.81s.24,1.24.46,2.34c.12.62.23,1.16.33,1.63S96.87,12.71,97.11,13.9Z"/><path class="cls-1" d="M104.45,12l0,1-.18,0-.22,0a8.17,8.17,0,0,1-1.77,0,5.53,5.53,0,0,1-1.53-.35,3.63,3.63,0,0,1-1.53-1.1,3.21,3.21,0,0,1-.72-1.7,3.05,3.05,0,0,1,.25-1.66,3.74,3.74,0,0,1,1-1.34,4.9,4.9,0,0,1,1.48-.84,7.68,7.68,0,0,1,1.86-.46l.16,0,.14,0,.18,1h-.11l-.12,0a7.09,7.09,0,0,0-1.36.27,4.8,4.8,0,0,0-1.07.46,2.48,2.48,0,0,0-1,1.06,2.35,2.35,0,0,0-.26,1.39,2.56,2.56,0,0,0,.58,1.38,2.7,2.7,0,0,0,1.16.76,4.42,4.42,0,0,0,1.19.21A8,8,0,0,0,104,12l.26,0Z"/><path class="cls-1" d="M111.29,8.27c.07,1.21.13,2.19.17,3s.06,1.17.07,1.23l-.68.1c-.4,0-.92.1-1.56.14a7.15,7.15,0,0,1-1.22,0A4.34,4.34,0,0,1,107,12.4a2.61,2.61,0,0,1-1-.68,1.83,1.83,0,0,1-.43-1.11A1.79,1.79,0,0,1,106,9.38a3,3,0,0,1,1.14-.89,7.26,7.26,0,0,1,1.24-.43,17,17,0,0,1,1.8-.35,2,2,0,0,0-.34-.91,1.49,1.49,0,0,0-.74-.52,3.26,3.26,0,0,0-.73-.14,7,7,0,0,0-.92,0l-.56.05-.63.07.06-1,.44,0c.21,0,.51-.05.88-.07a5.46,5.46,0,0,1,1.55.09,2.62,2.62,0,0,1,1.16.51,2.44,2.44,0,0,1,.68.9A4.61,4.61,0,0,1,111.29,8.27Zm-1,1.83c0-.17,0-.38,0-.63s0-.55-.06-.88c-.21,0-.58.09-1.12.2a6,6,0,0,0-1.33.4,2.07,2.07,0,0,0-.7.51,1,1,0,0,0-.27.78,1.12,1.12,0,0,0,.32.78,1.69,1.69,0,0,0,.76.42,3.81,3.81,0,0,0,.81.13,7.05,7.05,0,0,0,.92,0l.35,0,.45,0s0-.19,0-.48S110.31,10.59,110.28,10.1Z"/><path class="cls-1" d="M118.18,11.53l-.15.92h-.6a3.6,3.6,0,0,1-2.26-.66,2.36,2.36,0,0,1-.74-1.94c0-.54,0-1.12,0-1.74s0-1.39,0-2.31l-1.23,0,0-.85,1.29,0,0-1.74,1.06,0,0,1.73,2.62,0,0,.86-2.62,0c0,.1,0,.41,0,.91s0,.89,0,1.13,0,.46,0,.76,0,.65,0,1.06a1.71,1.71,0,0,0,.49,1.38,2.52,2.52,0,0,0,1.58.44h.55Z"/><path class="cls-1" d="M121.29,12.54l-1.15,0c0-.08,0-.56.08-1.44s.09-1.61.12-2.19,0-1,.07-1.65,0-1.31.07-2.12l1.16,0c0,.7-.08,1.36-.12,2s-.06,1.16-.09,1.64c-.05,1.13-.09,2-.11,2.73S121.29,12.52,121.29,12.54Zm.48-8.82-1.29-.06.06-1.26,1.29.06Z"/><path class="cls-1" d="M130.92,9.67a4.32,4.32,0,0,1-.48,1.59,3.76,3.76,0,0,1-1,1.23,3.65,3.65,0,0,1-1.14.59,3.75,3.75,0,0,1-1.36.1,3.66,3.66,0,0,1-1.28-.38,3.1,3.1,0,0,1-1-.81,3.4,3.4,0,0,1-.72-1.4,4.46,4.46,0,0,1-.13-1.67,4.32,4.32,0,0,1,.41-1.52,3.8,3.8,0,0,1,.94-1.18,3.37,3.37,0,0,1,1.22-.66,3.47,3.47,0,0,1,1.4-.13,3.55,3.55,0,0,1,1.34.39,3,3,0,0,1,1,.87,3.74,3.74,0,0,1,.69,1.38A4.44,4.44,0,0,1,130.92,9.67Zm-1.18-.07a4.08,4.08,0,0,0-.08-1.35,2.67,2.67,0,0,0-.57-1.17,1.91,1.91,0,0,0-.63-.49,2.25,2.25,0,0,0-.8-.24,2.32,2.32,0,0,0-.89.07,2.2,2.2,0,0,0-.75.43,2.75,2.75,0,0,0-.71.94A3.66,3.66,0,0,0,125,9a4.24,4.24,0,0,0,.08,1.39,2.75,2.75,0,0,0,.62,1.15,2,2,0,0,0,.62.46,2.37,2.37,0,0,0,.77.21,2.29,2.29,0,0,0,.87-.07,2.07,2.07,0,0,0,.75-.39,3,3,0,0,0,.74-1A3.62,3.62,0,0,0,129.74,9.6Z"/><path class="cls-1" d="M138.46,14.77l-1.14-.21c0-.14.11-.58.26-1.33s.24-1.22.27-1.4.11-.62.2-1.1.15-.85.19-1.08a2,2,0,0,0-.1-1.24,1.26,1.26,0,0,0-1-.55,2.82,2.82,0,0,0-1.13.06,8.21,8.21,0,0,0-1.43.42l-.17.85-.27,1.42c-.1.56-.22,1.23-.35,2s-.21,1.2-.21,1.24l-1.14-.21s.06-.32.17-.88.27-1.37.48-2.47c.09-.5.2-1.09.32-1.77s.25-1.4.37-2.17l1.13.21-.16.83h0a10.62,10.62,0,0,1,1.83-.49,3.81,3.81,0,0,1,1.16,0,2,2,0,0,1,1.38.86,2.2,2.2,0,0,1,.26,1.69q-.16.9-.3,1.56c-.09.44-.16.79-.21,1.07-.08.44-.17,1-.28,1.64S138.46,14.73,138.46,14.77Z"/><path class="cls-1" d="M147,12.62c-.31,1.17-.57,2.12-.77,2.86s-.3,1.13-.32,1.18l-.67-.12c-.4-.07-.91-.19-1.53-.35a6,6,0,0,1-1.14-.42,4.1,4.1,0,0,1-.93-.57,2.42,2.42,0,0,1-.73-1,1.82,1.82,0,0,1-.06-1.18,1.85,1.85,0,0,1,.72-1.06,3.06,3.06,0,0,1,1.36-.49,7.87,7.87,0,0,1,1.32,0,15.51,15.51,0,0,1,1.82.24,2.09,2.09,0,0,0,0-1,1.46,1.46,0,0,0-.55-.72,3.26,3.26,0,0,0-.64-.37,7.57,7.57,0,0,0-.88-.29l-.55-.12-.61-.13.36-.91.43.09q.31.06.87.21a5.92,5.92,0,0,1,1.44.56,2.69,2.69,0,0,1,.94.85,2.63,2.63,0,0,1,.37,1.07A4.9,4.9,0,0,1,147,12.62ZM145.42,14c0-.16.1-.37.16-.61s.14-.53.22-.85c-.21-.05-.58-.1-1.12-.17a6.73,6.73,0,0,0-1.4,0,2.19,2.19,0,0,0-.82.26,1,1,0,0,0-.5.66,1.09,1.09,0,0,0,.06.84,1.7,1.7,0,0,0,.59.64,4.06,4.06,0,0,0,.72.38,7.55,7.55,0,0,0,.88.28l.35.09.43.1.13-.47C145.2,14.88,145.3,14.51,145.42,14Z"/><path class="cls-1" d="M149.56,17.82l-1.1-.35c0-.06.25-.73.68-2s.79-2.39,1.06-3.24l.68-2.1c.27-.84.57-1.79.89-2.85l1.11.36c-.25.71-.52,1.54-.83,2.48l-.78,2.37c-.45,1.41-.85,2.64-1.18,3.7S149.58,17.77,149.56,17.82Z"/><path class="cls-1" d="M154.34,18l0,.05-3,2.74-.6-.59c.07-.06.4-.39,1-1s1.21-1.26,1.88-2Z"/><path class="cls-1" d="M165.32,21.33a2.44,2.44,0,0,1-.89,1.05,2.7,2.7,0,0,1-1.26.42,4.15,4.15,0,0,1-1.34-.1,7.06,7.06,0,0,1-1.5-.52l-.87-.44-.51-.28.4-1,.49.29c.27.16.6.33,1,.51a6.53,6.53,0,0,0,1,.33,3.46,3.46,0,0,0,1,.17,2,2,0,0,0,.82-.18,1.25,1.25,0,0,0,.54-.59,1.55,1.55,0,0,0,.14-.85,2.33,2.33,0,0,0-.41-.92c-.15-.22-.35-.49-.61-.8a9.49,9.49,0,0,1-.67-.9,3.08,3.08,0,0,1-.54-1.35,2.27,2.27,0,0,1,.22-1.22A2.23,2.23,0,0,1,163,14a2.84,2.84,0,0,1,1-.45,3.21,3.21,0,0,1,1.27,0,5.47,5.47,0,0,1,1.43.48c.28.13.55.27.83.42l.46.25-.36,1-.46-.28a10.57,10.57,0,0,0-1-.53,3.77,3.77,0,0,0-.8-.28,2.57,2.57,0,0,0-.81-.07,1.51,1.51,0,0,0-.65.21,1.2,1.2,0,0,0-.49.55,1.22,1.22,0,0,0-.1.72,2.46,2.46,0,0,0,.44,1,8.35,8.35,0,0,0,.54.72c.23.29.45.58.66.88a3.38,3.38,0,0,1,.57,1.37A2.32,2.32,0,0,1,165.32,21.33Z"/><path class="cls-1" d="M170.86,26.44l-.55.81-.17-.09-.19-.11a7.92,7.92,0,0,1-1.45-1,5.93,5.93,0,0,1-1-1.19,3.71,3.71,0,0,1-.58-1.79,3.29,3.29,0,0,1,.43-1.8,3.09,3.09,0,0,1,1.19-1.19,3.8,3.8,0,0,1,1.62-.47,5.15,5.15,0,0,1,1.69.21,7.52,7.52,0,0,1,1.77.73l.15.08.11.06-.42.89-.1-.06-.1-.05a7.61,7.61,0,0,0-1.26-.59,5,5,0,0,0-1.13-.26,2.48,2.48,0,0,0-2.49,1.21,2.49,2.49,0,0,0-.35,1.45,2.59,2.59,0,0,0,.49,1.3,4,4,0,0,0,.83.88,8.07,8.07,0,0,0,1.14.76l.23.13Z"/><path class="cls-1" d="M173.08,29l-1-.61.79-1.22,1.17-1.84.88-1.41c.32-.51.69-1.11,1.11-1.81l1,.62L176,24.34c-.34.52-.63,1-.88,1.38-.61,1-1.09,1.74-1.45,2.33S173.09,29,173.08,29Zm4.76-7.44-1.09-.69.67-1.06,1.09.68Z"/><path class="cls-1" d="M182.37,30.51l-4.32-3.06a3.19,3.19,0,0,0-.56,1.35,2.72,2.72,0,0,0,.19,1.45,3.12,3.12,0,0,0,.55.89,5.17,5.17,0,0,0,1,.86,6.45,6.45,0,0,0,.63.43l.37.22-.67.72a3.41,3.41,0,0,1-.33-.2c-.19-.12-.41-.26-.65-.44a6.37,6.37,0,0,1-1.49-1.42,4,4,0,0,1-.67-1.51,3.66,3.66,0,0,1,0-1.4,3.73,3.73,0,0,1,.62-1.46,4.26,4.26,0,0,1,1.08-1.08,4,4,0,0,1,1.33-.59,2.8,2.8,0,0,1,1.32,0,3.39,3.39,0,0,1,1.24.55,3.27,3.27,0,0,1,.87.87,2.39,2.39,0,0,1,.39,1,3.2,3.2,0,0,1-.13,1.32A5.44,5.44,0,0,1,182.37,30.51Zm-.45-1.32a2.5,2.5,0,0,0,.32-1.52,1.81,1.81,0,0,0-.78-1.19,1.9,1.9,0,0,0-1.42-.36,2.79,2.79,0,0,0-1.44.71Z"/><path class="cls-1" d="M186.21,38.81l-.89-.74.88-1,.92-1.08.72-.87.69-.84a2,2,0,0,0,.53-1.14,1.26,1.26,0,0,0-.56-.94,3.21,3.21,0,0,0-1-.51,8.92,8.92,0,0,0-1.46-.34l-.56.67-.93,1.1c-.36.43-.8,1-1.3,1.58l-.8,1-.88-.74.58-.68,1.63-1.92,1.15-1.39c.44-.53.9-1.09,1.39-1.7l.88.74-.55.64h0a10.81,10.81,0,0,1,1.83.47,3.63,3.63,0,0,1,1,.56,2,2,0,0,1,.78,1.41,2.23,2.23,0,0,1-.6,1.61c-.39.47-.74.87-1,1.21l-.71.83-1,1.29Z"/><path class="cls-1" d="M191.64,42.74l-.74.57-.19-.16-.26-.24a3.44,3.44,0,0,1-1.19-2A2.32,2.32,0,0,1,190,39c.37-.39.78-.81,1.22-1.25l1.61-1.65-.89-.86.6-.61.93.9,1.21-1.25.76.74-1.21,1.25,1.89,1.82-.6.61-1.88-1.82c-.07.08-.29.29-.65.65l-.79.81-.52.54-.74.76A1.69,1.69,0,0,0,190.4,41a2.47,2.47,0,0,0,.84,1.4l.23.22A1.46,1.46,0,0,1,191.64,42.74Z"/><path class="cls-1" d="M193.14,45.65l-.79-.84,1.06-1L195,42.35l1.2-1.14,1.53-1.47.8.84-1.46,1.33L195.89,43l-2,1.88Zm6.49-6-.89-.94.92-.86.89.94Z"/><path class="cls-1" d="M205.2,44.57l-.1-.12-.13-.16a3.67,3.67,0,0,0-.8-.74,1.77,1.77,0,0,0-.78-.27,1.6,1.6,0,0,0-.72.12,3,3,0,0,0-.76.48l-.25.22L203.28,46l-.65.56L201,44.65l-3.35,2.87L196,48.92l-.75-.88,1.58-1.33q1.5-1.24,3.43-2.9l-.93-1.1.65-.55.93,1.09.28-.23a3.64,3.64,0,0,1,1-.62,2.5,2.5,0,0,1,1.11-.16,2.8,2.8,0,0,1,1.11.33,4.23,4.23,0,0,1,1.15,1l.15.17.11.13Z"/><path class="cls-1" d="M199.28,53l-.71-.92c.07,0,.45-.33,1.16-.86l1.74-1.33,1.31-1,1.66-1.31.71.91-1.58,1.19-1.3,1c-.9.69-1.62,1.26-2.16,1.69Zm7-5.34-.78-1,1-.77.79,1Z"/><path class="cls-1" d="M204.49,58.65l-.85.48a1.49,1.49,0,0,1-.11-.15l-.12-.18a8.23,8.23,0,0,1-.85-1.55,5.62,5.62,0,0,1-.4-1.52,3.67,3.67,0,0,1,.27-1.87,3.3,3.3,0,0,1,1.19-1.41,2.87,2.87,0,0,1,1.59-.54,3.79,3.79,0,0,1,1.66.29,5.18,5.18,0,0,1,1.43.94,7.94,7.94,0,0,1,1.26,1.44l.09.13.08.11-.78.61-.06-.1a.47.47,0,0,1-.06-.09,8.62,8.62,0,0,0-.87-1.09,4.87,4.87,0,0,0-.9-.73,2.51,2.51,0,0,0-1.41-.43,2.45,2.45,0,0,0-1.36.41,2.54,2.54,0,0,0-1,1.15,2.69,2.69,0,0,0-.14,1.38,4.47,4.47,0,0,0,.36,1.15,7.55,7.55,0,0,0,.68,1.19,2.1,2.1,0,0,1,.15.22A.91.91,0,0,1,204.49,58.65Z"/><path class="cls-1" d="M212.7,66.58,210.08,68l-1.09.57-.37-.58c-.21-.34-.47-.79-.77-1.36a6.16,6.16,0,0,1-.47-1.12,3.81,3.81,0,0,1-.21-1.07,2.37,2.37,0,0,1,.21-1.19,1.76,1.76,0,0,1,.82-.84,1.83,1.83,0,0,1,1.27-.19,3,3,0,0,1,1.28.67,6,6,0,0,1,.91.95,15.74,15.74,0,0,1,1.06,1.49,1.85,1.85,0,0,0,.7-.69,1.52,1.52,0,0,0,.16-.89,2.92,2.92,0,0,0-.18-.72,5.86,5.86,0,0,0-.38-.84c-.1-.19-.19-.36-.27-.49l-.33-.53.92-.36c0,.07.11.19.22.38s.26.44.44.77a6.31,6.31,0,0,1,.56,1.45,2.73,2.73,0,0,1,0,1.27,2.3,2.3,0,0,1-.54,1A4.61,4.61,0,0,1,212.7,66.58Zm-2.08-.16.55-.3.78-.42c-.11-.18-.33-.49-.65-.93a5.83,5.83,0,0,0-.92-1,2.13,2.13,0,0,0-.75-.42,1,1,0,0,0-.82.07,1.16,1.16,0,0,0-.58.62,1.65,1.65,0,0,0-.07.87,3.54,3.54,0,0,0,.22.78,6.23,6.23,0,0,0,.38.84l.17.31.23.39.43-.22Z"/><path class="cls-1" d="M212.49,76.41,212,75.35l1.25-.51,1.32-.55,1-.44,1-.43a2,2,0,0,0,1-.77,1.27,1.27,0,0,0-.06-1.1,3.26,3.26,0,0,0-.68-.92,7.81,7.81,0,0,0-1.14-1l-.8.33-1.34.56-1.88.81-1.15.51-.45-1.06.83-.34c.52-.21,1.3-.53,2.32-1l1.66-.7,2-.89.45,1.06-.78.32h0A10.22,10.22,0,0,1,218,70.57a3.91,3.91,0,0,1,.66,1,2,2,0,0,1,0,1.62,2.18,2.18,0,0,1-1.26,1.15l-1.48.62-1,.41-1.53.67Z"/><path class="cls-1" d="M215,84.22a2.2,2.2,0,0,0-.08-.26l-.12-.35a14.81,14.81,0,0,1-.55-2.11,5.36,5.36,0,0,1,0-1.6,3.57,3.57,0,0,1,.73-1.79,3.15,3.15,0,0,1,1.49-1A3.59,3.59,0,0,1,218.5,77a3.73,3.73,0,0,1,1.78,1.14,5.85,5.85,0,0,1,.86,1.22,8.76,8.76,0,0,1,.62,1.46l3.21-1,.35,1.1-1.95.61-3.68,1.17-2.66.86Zm4.56-2.65.61-.19.67-.22a6.74,6.74,0,0,0-.54-1.28,4.92,4.92,0,0,0-.66-.95,2.52,2.52,0,0,0-2.78-.72,2.08,2.08,0,0,0-1.11.76,2.65,2.65,0,0,0-.51,1.18,4,4,0,0,0,0,1.21,6.36,6.36,0,0,0,.27,1.31l0,.09,0,.09,1-.33Z"/><path class="cls-1" d="M218.76,97l-.37,0-.66.06,0-.13c0-.05,0-.09,0-.13a10.33,10.33,0,0,1-.12-3.2,5.81,5.81,0,0,1,.88-2.49,4.43,4.43,0,0,1,1.22-1.22,4.83,4.83,0,0,1,1.8-.69,4,4,0,0,1,1.77,0,4.64,4.64,0,0,1,1.52.67,6,6,0,0,1,1.73,2,9.24,9.24,0,0,1,1,2.91q0,.08,0,.18a1.06,1.06,0,0,0,0,.14l-.41.1-.61.16a.5.5,0,0,1,0-.12s0-.07,0-.12a9.45,9.45,0,0,0-.54-1.83,6.08,6.08,0,0,0-.89-1.56,3.85,3.85,0,0,0-1.59-1.16,3.38,3.38,0,0,0-1.83-.18,3.63,3.63,0,0,0-1.69.76,3.59,3.59,0,0,0-1.09,1.63,6.25,6.25,0,0,0-.33,1.86,9.79,9.79,0,0,0,.14,2s0,.07,0,.13A1.42,1.42,0,0,0,218.76,97Z"/><path class="cls-1" d="M218.57,104.84l-.09-1.12.84-.07h0a10.15,10.15,0,0,1-.8-1.21,3.53,3.53,0,0,1-.48-1.47,2.11,2.11,0,0,1,.46-1.63,2.36,2.36,0,0,1,1.63-.71l1.39-.11,1.18-.09,1.63-.16,1.1-.11.1,1.16-1,.07c-.64.05-1.15.08-1.53.12l-1.25.11-1.07.1a2.25,2.25,0,0,0-1.24.41,1,1,0,0,0-.32.95,3.73,3.73,0,0,0,.47,1.4,7.66,7.66,0,0,0,.71,1.09l.81-.06,1.79-.15,1.84-.18,1.16-.11.1,1.15-.82.05-2.38.19-1.65.15Z"/><path class="cls-1" d="M218.65,108.76l0-1.16,2.14,0,3.41,0,2.2-.05c.89,0,1.88,0,3-.07l0,1.15-2.62,0-2.5,0-3.88.08Z"/><path class="cls-1" d="M219.42,115.59l-.93-.17v-.6a3.55,3.55,0,0,1,.71-2.25,2.35,2.35,0,0,1,2-.7l1.74.08,2.3.09.05-1.23.85,0,0,1.3,1.73.06,0,1.06L226,113.2l-.09,2.62-.86,0,.09-2.62-.91,0-1.13-.05-.75,0-1.06,0a1.65,1.65,0,0,0-1.39.46,2.39,2.39,0,0,0-.48,1.57c0,.08,0,.19,0,.31Z"/><path class="cls-1" d="M217.72,123.32l.12-1.11.85.1h0a9.6,9.6,0,0,1-.55-1.35,3.57,3.57,0,0,1-.18-1.53,2.13,2.13,0,0,1,.78-1.51,2.36,2.36,0,0,1,1.73-.38l1.39.17,1.17.15,1.63.17,1.1.1-.13,1.15-1-.13-1.52-.19-1.25-.14-1.06-.11a2.34,2.34,0,0,0-1.3.16,1.06,1.06,0,0,0-.5.87,3.4,3.4,0,0,0,.19,1.46,6.53,6.53,0,0,0,.48,1.21l.8.1,1.79.21,1.83.19,1.16.11-.13,1.15-.82-.11-2.36-.28-1.65-.18Z"/><path class="cls-1" d="M222.87,131.38a10.42,10.42,0,0,0-.16-1.29c-.09-.58-.24-1.26-.44-2l-.72-.14-1.2-.24c-.56-.11-1.23-.24-2-.37l-1.3-.24.22-1.13.8.17,2.34.47,1.87.35,2.27.42-.22,1.11-1.09-.21h0c.2.6.36,1.18.49,1.75a10.2,10.2,0,0,1,.21,1.36Z"/><path class="cls-1" d="M218.81,137.55l-2.86-.78-1.18-.33.12-.67c.08-.4.2-.91.37-1.53a6.57,6.57,0,0,1,.42-1.14,3.83,3.83,0,0,1,.58-.92,2.42,2.42,0,0,1,1-.73,1.93,1.93,0,0,1,2.23.68,3,3,0,0,1,.49,1.36,8,8,0,0,1,0,1.32,15.55,15.55,0,0,1-.25,1.81,2,2,0,0,0,1,0,1.51,1.51,0,0,0,.73-.54,2.81,2.81,0,0,0,.36-.64,6,6,0,0,0,.3-.88c.06-.21.1-.39.13-.55s.07-.35.13-.61l.91.37c0,.07-.05.21-.09.43s-.12.5-.22.86a6.18,6.18,0,0,1-.57,1.44,2.51,2.51,0,0,1-.86.93,2.28,2.28,0,0,1-1.07.37A5.16,5.16,0,0,1,218.81,137.55ZM217.4,136l.61.17.85.22c0-.21.1-.58.17-1.12a6.71,6.71,0,0,0,0-1.39,2.23,2.23,0,0,0-.26-.83,1,1,0,0,0-.65-.5,1.17,1.17,0,0,0-.85,0,1.77,1.77,0,0,0-.64.59,4.06,4.06,0,0,0-.38.72,6.82,6.82,0,0,0-.29.87c0,.1-.06.21-.09.35s-.07.29-.1.44l.46.13Z"/><path class="cls-1" d="M213.57,140.09l.37-1.1,2,.71,3.23,1.1,2.08.71,2.84.93-.37,1.1-2.47-.86q-1.4-.5-2.37-.81l-3.68-1.24Z"/><path class="cls-1" d="M211.81,156.45a5.68,5.68,0,0,1-1.78-1.31,4.92,4.92,0,0,1-1-1.66,4.7,4.7,0,0,1-.27-1.84,4.86,4.86,0,0,1,1.48-3.12,4.41,4.41,0,0,1,1.47-.9,4.68,4.68,0,0,1,2-.3,5.79,5.79,0,0,1,2.24.59,6.07,6.07,0,0,1,1.71,1.2,5.21,5.21,0,0,1,1,1.66,4.33,4.33,0,0,1,.3,1.82,4.76,4.76,0,0,1-.46,1.84,4.68,4.68,0,0,1-1.12,1.49,4.41,4.41,0,0,1-1.52.89,5.06,5.06,0,0,1-2,.23A6.09,6.09,0,0,1,211.81,156.45Zm.44-1.17a5.69,5.69,0,0,0,1.82.52,3.76,3.76,0,0,0,1.81-.2,3.21,3.21,0,0,0,1-.6,3.32,3.32,0,0,0,1.06-2.21,3.1,3.1,0,0,0-.19-1.23,3.92,3.92,0,0,0-.91-1.46,5.1,5.1,0,0,0-1.48-1.07,4.93,4.93,0,0,0-1.85-.52,4.06,4.06,0,0,0-1.68.23,3.41,3.41,0,0,0-1,.61,3.12,3.12,0,0,0-.76,1,3.23,3.23,0,0,0-.31,1.2,3.27,3.27,0,0,0,.17,1.23,4.14,4.14,0,0,0,.82,1.4A4.66,4.66,0,0,0,212.25,155.28Z"/><path class="cls-1" d="M209.64,163.26a10.58,10.58,0,0,0,.29-1.27c.11-.58.2-1.27.28-2.06l-.63-.39-1.05-.63c-.49-.29-1.08-.64-1.77-1l-1.14-.66.6-1,.69.44,2,1.23,1.64,1,2,1.16-.58,1-1-.57h0a15.09,15.09,0,0,1-.14,1.82,10.79,10.79,0,0,1-.25,1.35Z"/><path class="cls-1" d="M206.15,170l-1.18-.84-2-1.41c-.43-.31-.87-.61-1.32-.92L200.4,166A3.91,3.91,0,0,1,199,164.5a3.16,3.16,0,0,1-.23-1.65,5.82,5.82,0,0,1,.45-1.54,11,11,0,0,1,1.09-1.88l.83.44a13.65,13.65,0,0,0-.8,1.31,5.17,5.17,0,0,0-.48,1.17,2.35,2.35,0,0,0,0,1.47,2.45,2.45,0,0,0,.86,1l.1-.14.1-.15a8.31,8.31,0,0,1,1.2-1.35,4.49,4.49,0,0,1,1.45-.91,3.25,3.25,0,0,1,1.52-.21,3.37,3.37,0,0,1,1.64.66,3,3,0,0,1,1.16,1.5,4,4,0,0,1,.16,1.95,5.4,5.4,0,0,1-.47,1.46,12.52,12.52,0,0,1-1,1.65l-.23.33Zm-2.55-3.15,1.08.75,1.36.93.06-.08.05-.07a7,7,0,0,0,.61-1,5,5,0,0,0,.35-1.07,2.47,2.47,0,0,0-.12-1.48,2.6,2.6,0,0,0-.93-1.13,2.34,2.34,0,0,0-1.35-.46,2.51,2.51,0,0,0-1.32.35,4.84,4.84,0,0,0-.88.65,5.84,5.84,0,0,0-.82.95.62.62,0,0,1-.09.12l-.07.1.67.48Z"/><path class="cls-1" d="M198.4,174.37l-2.28-1.89c-.58-.49-.89-.76-.94-.79l.39-.56c.24-.34.56-.75,1-1.24a6.35,6.35,0,0,1,.86-.86,4.13,4.13,0,0,1,.91-.61,2.61,2.61,0,0,1,1.17-.26,1.8,1.8,0,0,1,1.1.44,1.84,1.84,0,0,1,.66,1.1,3,3,0,0,1-.12,1.44,7.63,7.63,0,0,1-.54,1.21,17.79,17.79,0,0,1-1,1.55,2,2,0,0,0,.9.38,1.5,1.5,0,0,0,.88-.2,2.66,2.66,0,0,0,.6-.43,6.14,6.14,0,0,0,.63-.68,4.74,4.74,0,0,0,.35-.44l.37-.5.68.71-.26.35c-.13.17-.31.41-.55.7a5.9,5.9,0,0,1-1.13,1.07,2.68,2.68,0,0,1-1.16.5,2.45,2.45,0,0,1-1.13-.12A4.73,4.73,0,0,1,198.4,174.37Zm-.65-2,.49.4.68.56c.13-.17.34-.49.62-1a6.21,6.21,0,0,0,.61-1.26,2,2,0,0,0,.11-.85,1,1,0,0,0-.38-.73,1.17,1.17,0,0,0-.79-.3,1.73,1.73,0,0,0-.83.27,4,4,0,0,0-.65.5,8.23,8.23,0,0,0-.63.67l-.22.28-.27.35s.15.13.37.32Z"/><path class="cls-1" d="M189.26,178l.8-.83,1,1,1,1,.81.78.78.75a2,2,0,0,0,1.09.61,1.24,1.24,0,0,0,1-.49,3.12,3.12,0,0,0,.59-1,8.26,8.26,0,0,0,.44-1.43l-.61-.61-1-1-1.48-1.42-.92-.87.81-.83.63.64,1.79,1.77,1.3,1.25c.49.48,1,1,1.59,1.52l-.8.82-.6-.6h0a11,11,0,0,1-.61,1.79,3.53,3.53,0,0,1-.64,1,1.93,1.93,0,0,1-1.47.66,2.21,2.21,0,0,1-1.55-.72c-.44-.43-.82-.8-1.13-1.12l-.77-.76c-.32-.31-.72-.7-1.21-1.15Z"/><path class="cls-1" d="M186.39,180.56l.86-.78c0,.06.36.42.95,1.08l1.46,1.64,1.11,1.22c.41.45.89,1,1.45,1.56l-.86.78c-.47-.53-.9-1-1.31-1.48L189,183.35c-.76-.84-1.38-1.51-1.85-2Zm5.87,6.6,1-.87.84.94-1,.86Z"/><path class="cls-1" d="M180.2,185.78l1-.78,1.38-1.11,1.37-1.11.84-.69.62.38c0,.79,0,1.84.07,3.16s.06,2.66.09,4h0l.5-.4.49-.39,1.38-1.13c.56-.46.85-.71.89-.73l.57.71-.93.75-1.08.87-1.23,1-.92.74-.72-.3c0-1.33,0-2.79-.07-4.38s-.08-2.51-.08-2.78h0l-.57.46-.76.61-1.67,1.36-.55.46Z"/><path class="cls-1" d="M176.94,193.13l-1.69-2.43-.69-1,.52-.43c.32-.26.74-.57,1.26-.94a6.45,6.45,0,0,1,1.06-.6,4.49,4.49,0,0,1,1-.34,2.54,2.54,0,0,1,1.2.07,1.93,1.93,0,0,1,1.28,1.95,3.05,3.05,0,0,1-.51,1.36,5.92,5.92,0,0,1-.84,1,15.64,15.64,0,0,1-1.35,1.24,2,2,0,0,0,.77.6,1.44,1.44,0,0,0,.9.05,3,3,0,0,0,.7-.25,8.67,8.67,0,0,0,.79-.49,5.33,5.33,0,0,0,.45-.33l.49-.39.46.87-.34.27c-.17.13-.41.31-.72.52a6,6,0,0,1-1.37.74,2.65,2.65,0,0,1-1.25.16,2.47,2.47,0,0,1-1.06-.41A4.79,4.79,0,0,1,176.94,193.13Zm-.09-2.09c.09.14.21.31.36.52s.31.44.51.71c.17-.13.45-.38.85-.75a5.67,5.67,0,0,0,.93-1,2.21,2.21,0,0,0,.33-.79,1,1,0,0,0-.17-.81,1.16,1.16,0,0,0-.68-.5,1.67,1.67,0,0,0-.88,0,3.85,3.85,0,0,0-.75.31,6.18,6.18,0,0,0-.79.48l-.29.21-.36.26.28.4Z"/><path class="cls-1" d="M169.39,193.94l-.37-.86.21-.14.29-.19a3.55,3.55,0,0,1,2.27-.64,2.33,2.33,0,0,1,1.65,1.25l.89,1.5,1.19,2,1-.63.44.73-1.11.67.9,1.48-.91.55-.9-1.48-2.24,1.35-.44-.73,2.24-1.36c-.05-.08-.21-.35-.46-.79l-.58-1c-.1-.17-.23-.39-.39-.64l-.54-.91a1.67,1.67,0,0,0-1.15-.91,2.5,2.5,0,0,0-1.58.45l-.26.17Z"/><path class="cls-1" d="M166.18,194.65l1-.55c0,.07.25.5.67,1.28s.75,1.42,1,1.93l.79,1.46c.29.53.63,1.15,1,1.85l-1,.55c-.32-.62-.63-1.2-.91-1.75s-.54-1-.77-1.44q-.81-1.5-1.32-2.4Zm4.14,7.8,1.14-.61.6,1.11-1.14.61Z"/><path class="cls-1" d="M159.43,202.05a4.5,4.5,0,0,1-.41-1.6,3.6,3.6,0,0,1,.23-1.57,3.47,3.47,0,0,1,.68-1.09A3.58,3.58,0,0,1,161,197a3.8,3.8,0,0,1,1.29-.34,3.33,3.33,0,0,1,1.29.17,3.71,3.71,0,0,1,1.34.83,4.55,4.55,0,0,1,1,1.38,4.75,4.75,0,0,1,.42,1.51,3.64,3.64,0,0,1-.2,1.49,3.45,3.45,0,0,1-.7,1.2,3.76,3.76,0,0,1-2.49,1.18,3,3,0,0,1-1.32-.22,3.79,3.79,0,0,1-1.3-.82A4.63,4.63,0,0,1,159.43,202.05Zm1-.54a4.14,4.14,0,0,0,.77,1.12,2.62,2.62,0,0,0,1.09.7,1.94,1.94,0,0,0,.8.11,2.26,2.26,0,0,0,.8-.21,2.32,2.32,0,0,0,.73-.52,2.09,2.09,0,0,0,.42-.75,2.67,2.67,0,0,0,.13-1.18,3.69,3.69,0,0,0-.34-1.25,4.16,4.16,0,0,0-.78-1.15,2.73,2.73,0,0,0-1.12-.67,2,2,0,0,0-.76-.07,2.16,2.16,0,0,0-.78.21,2.19,2.19,0,0,0-.71.51,2.06,2.06,0,0,0-.44.72,2.8,2.8,0,0,0-.14,1.2A3.88,3.88,0,0,0,160.47,201.51Z"/><path class="cls-1" d="M150.32,201.55l1.09-.4c0,.13.19.55.45,1.27s.42,1.17.49,1.34l.39,1.05.39,1a2,2,0,0,0,.72,1,1.28,1.28,0,0,0,1.1,0,3,3,0,0,0,1-.63,8.86,8.86,0,0,0,1-1.09c0-.06-.11-.33-.29-.82s-.35-.95-.5-1.36-.44-1.17-.73-1.92-.44-1.13-.45-1.17l1.08-.4s.12.31.3.84.48,1.32.86,2.37l.63,1.68c.24.65.51,1.33.79,2.06l-1.07.39-.29-.79h0a9.64,9.64,0,0,1-1.32,1.36,3.49,3.49,0,0,1-1,.61,2,2,0,0,1-1.61,0,2.22,2.22,0,0,1-1.1-1.31l-.54-1.5-.37-1c-.15-.41-.35-.93-.59-1.55S150.34,201.58,150.32,201.55Z"/><path class="cls-1" d="M136.06,205.77l1-.84.71.95c.44.59,1,1.35,1.73,2.27l4.22-1c.24-1.23.42-2.18.55-2.85s.19-1.05.21-1.13l1.07.29q-.09.42-.75,3.63c-.44,2.15-.89,4.39-1.35,6.75l-.92.22q-2.19-2.85-4.27-5.52Zm4,3.19,1.22,1.63,1.36,1.78,0,0c.12-.57.25-1.28.41-2.13l.39-2.06h0l-3.42.81Z"/><path class="cls-1" d="M130.93,208.3a1.77,1.77,0,0,1,.11-1,2.22,2.22,0,0,1,.57-.79,3.58,3.58,0,0,1,1-.58,5.53,5.53,0,0,1,1.32-.35c.23,0,.48-.07.74-.09l.43,0,.2.94-.51,0c-.3,0-.59.06-.88.11l-.64.15a2.34,2.34,0,0,0-.63.26,1.37,1.37,0,0,0-.48.48.88.88,0,0,0-.08.58.75.75,0,0,0,.23.46,1.79,1.79,0,0,0,.48.29,4.87,4.87,0,0,0,.85.29,6.57,6.57,0,0,1,.91.29,2.25,2.25,0,0,1,.86.58,1.69,1.69,0,0,1,.4.9,1.66,1.66,0,0,1-.13,1,2.27,2.27,0,0,1-.68.81,2.94,2.94,0,0,1-.9.46,7.13,7.13,0,0,1-1,.24l-.73.1-.32,0-.24-1,.45,0c.27,0,.56-.06.87-.11a2.91,2.91,0,0,0,.63-.15,2.66,2.66,0,0,0,.48-.25,1.11,1.11,0,0,0,.39-.46.81.81,0,0,0,.06-.45.71.71,0,0,0-.27-.47,1.72,1.72,0,0,0-.49-.29c-.22-.08-.51-.17-.88-.28a7.19,7.19,0,0,1-.81-.26,2.56,2.56,0,0,1-.89-.59A1.68,1.68,0,0,1,130.93,208.3Z"/><path class="cls-1" d="M124.75,209a1.82,1.82,0,0,1,.16-1,2.15,2.15,0,0,1,.62-.75,3.44,3.44,0,0,1,1-.53,5.79,5.79,0,0,1,1.33-.28,6.06,6.06,0,0,1,.75,0h.43l.15,1h-.51c-.3,0-.59,0-.88.06l-.66.11a2.15,2.15,0,0,0-.64.23,1.31,1.31,0,0,0-.5.45.94.94,0,0,0-.12.58.78.78,0,0,0,.2.47,1.84,1.84,0,0,0,.46.31,4.26,4.26,0,0,0,.85.34,7.66,7.66,0,0,1,.89.34,2.42,2.42,0,0,1,.82.63,1.67,1.67,0,0,1,.35.92,1.64,1.64,0,0,1-.19,1,2.2,2.2,0,0,1-.72.77,2.84,2.84,0,0,1-.92.41,6.32,6.32,0,0,1-1,.18l-.73.06-.33,0-.18-1,.45,0a7.1,7.1,0,0,0,.88-.06,3.06,3.06,0,0,0,.63-.12,1.79,1.79,0,0,0,.5-.22,1,1,0,0,0,.41-.43.86.86,0,0,0,.09-.46.74.74,0,0,0-.24-.48,1.72,1.72,0,0,0-.48-.31,8,8,0,0,0-.86-.33,6.81,6.81,0,0,1-.8-.31,2.73,2.73,0,0,1-.85-.63A1.72,1.72,0,0,1,124.75,209Z"/><path class="cls-1" d="M116.11,211a4.53,4.53,0,0,1,.24-1.64,3.65,3.65,0,0,1,.83-1.35,3.49,3.49,0,0,1,1-.75,3.6,3.6,0,0,1,1.32-.29,3.9,3.9,0,0,1,1.33.19,3.42,3.42,0,0,1,2,1.95,4.51,4.51,0,0,1,.36,1.64,4.4,4.4,0,0,1-.2,1.56,3.65,3.65,0,0,1-.76,1.3,3.52,3.52,0,0,1-1.12.83,3.48,3.48,0,0,1-1.36.32,3.66,3.66,0,0,1-1.39-.2,3,3,0,0,1-1.13-.72,3.65,3.65,0,0,1-.87-1.27A4.39,4.39,0,0,1,116.11,211Zm1.17-.1a3.86,3.86,0,0,0,.27,1.34,2.76,2.76,0,0,0,.73,1.07,2,2,0,0,0,.69.4,2.3,2.3,0,0,0,.82.12,2.15,2.15,0,0,0,.88-.19,2.21,2.21,0,0,0,.68-.53,2.86,2.86,0,0,0,.58-1,3.73,3.73,0,0,0,.17-1.28,4.22,4.22,0,0,0-.27-1.37,2.76,2.76,0,0,0-.77-1,2,2,0,0,0-.68-.37,2.32,2.32,0,0,0-.79-.11,2.41,2.41,0,0,0-.86.2,1.94,1.94,0,0,0-.68.49,2.72,2.72,0,0,0-.6,1.05A3.56,3.56,0,0,0,117.28,210.85Z"/><path class="cls-1" d="M109.06,208l.12-1h.41a8,8,0,0,1,1.75.24,5.64,5.64,0,0,1,1.46.58,3.56,3.56,0,0,1,1.34,1.33,3.24,3.24,0,0,1,.44,1.79,3,3,0,0,1-.51,1.6,3.57,3.57,0,0,1-1.22,1.16,5.13,5.13,0,0,1-1.6.6,8,8,0,0,1-1.91.16H109l0-1h.22a7.35,7.35,0,0,0,1.39-.06,4.81,4.81,0,0,0,1.13-.29,2.48,2.48,0,0,0,1.18-.88,2.36,2.36,0,0,0,.47-1.33,2.48,2.48,0,0,0-.35-1.45,2.74,2.74,0,0,0-1-.94,4.71,4.71,0,0,0-1.15-.39,8.18,8.18,0,0,0-1.35-.16h-.47Z"/><path class="cls-1" d="M105.17,215.57l1.28.11-.1,1.25-1.29-.1Zm.78-8.8,1.15.1c0,.08,0,.55-.13,1.44s-.14,1.6-.19,2.18-.08,1-.13,1.65-.1,1.31-.15,2.12l-1.15-.1c.07-.7.13-1.35.18-2s.11-1.16.15-1.63c.09-1.14.16-2,.2-2.74S106,206.79,106,206.77Z"/><path class="cls-1" d="M97.59,210c.16-1.2.3-2.18.4-2.93s.17-1.16.18-1.22l.68,0c.4,0,.92.07,1.56.16a6.1,6.1,0,0,1,1.18.27,4.91,4.91,0,0,1,1,.45,2.58,2.58,0,0,1,.84.87,1.95,1.95,0,0,1-.38,2.3,3,3,0,0,1-1.29.65,6.66,6.66,0,0,1-1.31.18,15.91,15.91,0,0,1-1.83,0,1.9,1.9,0,0,0,.16,1,1.41,1.41,0,0,0,.63.65,2.77,2.77,0,0,0,.68.28,7.71,7.71,0,0,0,.91.18l.56.06.62.05-.24.95-.44,0-.88-.1a6,6,0,0,1-1.51-.39,2.63,2.63,0,0,1-1-.73,2.44,2.44,0,0,1-.5-1A4.65,4.65,0,0,1,97.59,210Zm1.35-1.6c0,.16,0,.37-.09.62l-.11.88,1.13,0a6.08,6.08,0,0,0,1.39-.14,2,2,0,0,0,.79-.36,1,1,0,0,0,.41-.71,1.09,1.09,0,0,0-.16-.83,1.64,1.64,0,0,0-.67-.56,3.76,3.76,0,0,0-.76-.29q-.42-.1-.9-.18l-.36,0-.44,0s0,.19-.07.48S99,207.9,98.94,208.38Z"/><path class="cls-1" d="M91.44,205.48l.31-.89.25,0,.35.07a3.49,3.49,0,0,1,2.1,1.06,2.33,2.33,0,0,1,.37,2c-.1.53-.22,1.1-.35,1.71s-.28,1.36-.46,2.26l1.2.24-.17.84-1.27-.25-.34,1.7-1-.21.34-1.7-2.57-.52.17-.84,2.57.52c0-.1.08-.4.19-.9s.19-.86.23-1.1l.15-.74.21-1a1.66,1.66,0,0,0-.23-1.45,2.48,2.48,0,0,0-1.47-.72l-.31-.06Z"/><path class="cls-1" d="M83.3,206.54l5.12,1.37a3.15,3.15,0,0,0,0-1.46,2.61,2.61,0,0,0-.68-1.29,3.19,3.19,0,0,0-.83-.65,5.29,5.29,0,0,0-1.22-.46l-.75-.18-.42-.08.38-.91.38.08c.21,0,.47.1.75.18A6.05,6.05,0,0,1,88,204a3.94,3.94,0,0,1,1.16,1.18,3.79,3.79,0,0,1,.41,2.89,4.13,4.13,0,0,1-.63,1.39,4.21,4.21,0,0,1-1,1,3,3,0,0,1-1.24.47,3.6,3.6,0,0,1-1.35-.08,3.5,3.5,0,0,1-1.12-.51,2.64,2.64,0,0,1-.72-.84,3.16,3.16,0,0,1-.34-1.29A5.33,5.33,0,0,1,83.3,206.54Zm.89,1.09a2.48,2.48,0,0,0,.23,1.54,1.8,1.8,0,0,0,1.15.83,1.86,1.86,0,0,0,1.45-.15,2.72,2.72,0,0,0,1.1-1.17Z"/><path class="cls-1" d="M77.23,200.17l.26.09.35.12a14.56,14.56,0,0,1,2,.83,5.12,5.12,0,0,1,1.29.95,3.57,3.57,0,0,1,1,1.66,3.25,3.25,0,0,1-.09,1.8,3.55,3.55,0,0,1-1.19,1.68,3.76,3.76,0,0,1-2,.73,5.91,5.91,0,0,1-1.5-.05,8.46,8.46,0,0,1-1.54-.38l-1.09,3.2-1.09-.38c0-.1.26-.74.69-1.94s.85-2.4,1.28-3.63l.91-2.64Q76.93,201,77.23,200.17Zm-.62,5.23-.22.61c-.07.22-.15.44-.23.67a7.85,7.85,0,0,0,1.35.34,4.57,4.57,0,0,0,1.15,0,2.62,2.62,0,0,0,1.39-.53,2.72,2.72,0,0,0,.87-1.25,2.17,2.17,0,0,0,0-1.35,2.65,2.65,0,0,0-.63-1.12,4.22,4.22,0,0,0-.94-.76,6.42,6.42,0,0,0-1.21-.57l-.09,0-.09,0s-.14.39-.37,1Z"/><path class="cls-1" d="M65.3,198a2.32,2.32,0,0,1,.89-1,2.7,2.7,0,0,1,1.26-.42,4.45,4.45,0,0,1,1.34.1,7.12,7.12,0,0,1,1.5.53l.86.45.51.28-.4,1-.49-.3c-.27-.15-.6-.33-1-.51a7,7,0,0,0-1-.34,3.87,3.87,0,0,0-1-.17,1.74,1.74,0,0,0-.82.18,1.19,1.19,0,0,0-.53.59,1.45,1.45,0,0,0-.15.85,2.25,2.25,0,0,0,.41.92,9.71,9.71,0,0,0,.6.8,9.49,9.49,0,0,1,.67.9,3,3,0,0,1,.53,1.36,2.47,2.47,0,0,1-1,2.14,2.87,2.87,0,0,1-1,.44,3.16,3.16,0,0,1-1.26,0,5.78,5.78,0,0,1-1.43-.49c-.28-.13-.55-.27-.82-.42l-.47-.26.37-1,.46.28q.4.24,1,.54a5,5,0,0,0,.8.28,2.6,2.6,0,0,0,.82.07,1.35,1.35,0,0,0,.65-.21,1.23,1.23,0,0,0,.49-.54,1.34,1.34,0,0,0,.1-.72,2.4,2.4,0,0,0-.44-1c-.12-.19-.3-.43-.53-.72s-.45-.58-.65-.88a3.24,3.24,0,0,1-.57-1.37A2.28,2.28,0,0,1,65.3,198Z"/><path class="cls-1" d="M59.78,192.9l.56-.81.16.09.19.11a8.47,8.47,0,0,1,1.45,1,5.34,5.34,0,0,1,1,1.19,3.64,3.64,0,0,1,.58,1.79,3.31,3.31,0,0,1-.45,1.8,2.94,2.94,0,0,1-1.19,1.18,3.66,3.66,0,0,1-1.62.47,5.15,5.15,0,0,1-1.69-.21,8,8,0,0,1-1.77-.74l-.14-.08-.12-.07.43-.88.1.05.1.06a8.53,8.53,0,0,0,1.26.59,5.32,5.32,0,0,0,1.13.27,2.4,2.4,0,0,0,1.45-.24,2.42,2.42,0,0,0,1-1,2.52,2.52,0,0,0,.36-1.45,2.86,2.86,0,0,0-.48-1.31,4.6,4.6,0,0,0-.84-.88,7.42,7.42,0,0,0-1.13-.76L60,193Z"/><path class="cls-1" d="M53.57,187.71l1,.64-.75,1.09L53,190.65l-.62.93-.6.91a2,2,0,0,0-.4,1.19,1.27,1.27,0,0,0,.66.88,3.47,3.47,0,0,0,1,.39,9.4,9.4,0,0,0,1.52.19l3.1-4.7,1,.64L57.33,193c-.75,1.11-1.37,2-1.85,2.76l-1.19,1.78L52.67,200l-1-.64L54,195.92h0a11,11,0,0,1-1.88-.27,3.47,3.47,0,0,1-1.07-.45,2,2,0,0,1-.93-1.32,2.22,2.22,0,0,1,.43-1.66c.34-.51.63-1,.89-1.32l.61-.9c.25-.37.53-.79.84-1.28Z"/><path class="cls-1" d="M44.11,185.06A4.59,4.59,0,0,1,45.35,184a3.88,3.88,0,0,1,1.51-.49,3.41,3.41,0,0,1,1.28.12,3.35,3.35,0,0,1,1.2.64,3.5,3.5,0,0,1,.88,1,3.06,3.06,0,0,1,.43,1.23A3.5,3.5,0,0,1,50.5,188a4.47,4.47,0,0,1-.79,1.49,4.39,4.39,0,0,1-1.16,1.05,3.53,3.53,0,0,1-1.43.49,3.21,3.21,0,0,1-1.38-.09,3.54,3.54,0,0,1-1.25-.64,3.68,3.68,0,0,1-.93-1.06,3.42,3.42,0,0,1-.39-1.28,3.92,3.92,0,0,1,.16-1.53A4.49,4.49,0,0,1,44.11,185.06Zm1,.69a3.86,3.86,0,0,0-.66,1.19,2.61,2.61,0,0,0-.14,1.29,1.92,1.92,0,0,0,.26.75,2.36,2.36,0,0,0,.55.63,2.1,2.1,0,0,0,.79.42,2.22,2.22,0,0,0,.86,0,2.65,2.65,0,0,0,1.11-.41,4,4,0,0,0,1-.86,4.2,4.2,0,0,0,.67-1.22,2.6,2.6,0,0,0,.1-1.3,1.87,1.87,0,0,0-.27-.71,2.2,2.2,0,0,0-.54-.6,2.3,2.3,0,0,0-.77-.41,2.18,2.18,0,0,0-.84-.07,2.76,2.76,0,0,0-1.14.41A3.48,3.48,0,0,0,45.06,185.75Z"/><path class="cls-1" d="M37.65,179.09a4.37,4.37,0,0,1,1.33-1,3.75,3.75,0,0,1,1.55-.37,3.36,3.36,0,0,1,2.4,1,3.57,3.57,0,0,1,.8,1.07,3.26,3.26,0,0,1,.32,1.26,3.53,3.53,0,0,1-.27,1.55,4.78,4.78,0,0,1-.91,1.42,4.65,4.65,0,0,1-1.26,1,3.54,3.54,0,0,1-1.46.37,3.23,3.23,0,0,1-1.37-.21,3.45,3.45,0,0,1-1.19-.74,3.5,3.5,0,0,1-.83-1.13,3.21,3.21,0,0,1-.29-1.31,3.83,3.83,0,0,1,.29-1.51A4.35,4.35,0,0,1,37.65,179.09Zm.89.76a4.08,4.08,0,0,0-.76,1.13,2.63,2.63,0,0,0-.24,1.28,1.8,1.8,0,0,0,.2.77,2,2,0,0,0,.49.67,2.25,2.25,0,0,0,.75.49,2.14,2.14,0,0,0,.86.11A2.81,2.81,0,0,0,41,184a3.7,3.7,0,0,0,1-.77,4.22,4.22,0,0,0,.78-1.16,2.7,2.7,0,0,0,.2-1.29,2,2,0,0,0-.21-.74,2.44,2.44,0,0,0-.48-.64,2.26,2.26,0,0,0-.74-.47,2.16,2.16,0,0,0-.83-.14,2.91,2.91,0,0,0-1.17.31A3.81,3.81,0,0,0,38.54,179.85Z"/><path class="cls-1" d="M38,174l.79.84s-.57.52-1.58,1.45l-2.49,2.33-1.6,1.51L31,182.21l-.8-.84,1.92-1.77,1.83-1.71q1.62-1.51,2.82-2.67Z"/><path class="cls-1" d="M20.52,167.92l2.13-1.54,1.72-1.26c1.12-.82,2-1.48,2.65-2l1-.78,1,.5c-.73,2.37-1.35,4.54-1.88,6.53s-.83,3.13-.92,3.44h0c1.05-.77,2.34-1.74,3.86-2.88l2.63-2,.68.92-1.06.75-2.52,1.85-1.7,1.26-2.23,1.69-1.09-.58c0-.14.36-1.3,1-3.5s1.14-4.24,1.63-6.16h0c-.61.44-1.62,1.2-3,2.28s-2.47,1.86-3.16,2.37Z"/><path class="cls-1" d="M20.5,156.7l2.7,4.55a3.21,3.21,0,0,0,1.06-1,2.74,2.74,0,0,0,.42-1.4,3.19,3.19,0,0,0-.15-1,5.57,5.57,0,0,0-.55-1.19c-.14-.24-.28-.45-.41-.65l-.24-.35.9-.38a2.67,2.67,0,0,1,.22.32c.12.18.26.4.41.65a6.52,6.52,0,0,1,.79,1.91,3.87,3.87,0,0,1,0,1.66,3.72,3.72,0,0,1-.56,1.27,3.55,3.55,0,0,1-1.16,1.08,4.25,4.25,0,0,1-1.43.56,3.93,3.93,0,0,1-1.45,0,2.92,2.92,0,0,1-1.21-.53,3.5,3.5,0,0,1-.92-1,3.43,3.43,0,0,1-.44-1.15,2.41,2.41,0,0,1,.07-1.1,3.13,3.13,0,0,1,.65-1.16A5.53,5.53,0,0,1,20.5,156.7Zm-.13,1.39a2.49,2.49,0,0,0-.91,1.26,1.78,1.78,0,0,0,.24,1.4,1.88,1.88,0,0,0,1.15.91,2.68,2.68,0,0,0,1.6-.07Z"/><path class="cls-1" d="M20.43,149.79l.89-.3a1.76,1.76,0,0,1,.13.22,3.12,3.12,0,0,1,.16.31,3.48,3.48,0,0,1,.46,2.31,2.32,2.32,0,0,1-1.37,1.55l-1.56.77c-.56.27-1.24.61-2.06,1l.55,1.1-.77.38L16.28,156l-1.55.78-.48-.94,1.55-.78-1.18-2.35.77-.38,1.18,2.34.82-.4,1-.5.68-.34,1-.47a1.71,1.71,0,0,0,1-1.08,2.43,2.43,0,0,0-.33-1.6l-.15-.28A1.65,1.65,0,0,0,20.43,149.79Z"/><path class="cls-1" d="M10.05,140.81q2.61,0,5.07,0l2.54-.07.33.84-1.4,1.18c-.9.75-2,1.67-3.2,2.75h0l4-.05,2,0,.33.84c-.11.08-.73.6-1.85,1.58s-2.39,2.1-3.8,3.41l-.84-.83,4.86-4.06v0l-6.12.09-.33-.85,4.62-3.92h0l-6.32.24Z"/><path class="cls-1" d="M11.05,131.3a4.62,4.62,0,0,1,1.65-.13,3.71,3.71,0,0,1,1.51.51,3.41,3.41,0,0,1,1,.85,3.69,3.69,0,0,1,.58,1.23,3.79,3.79,0,0,1,.11,1.33,3.44,3.44,0,0,1-.39,1.25,3.64,3.64,0,0,1-1.05,1.17,4.53,4.53,0,0,1-1.52.72,4.3,4.3,0,0,1-1.57.15,3.37,3.37,0,0,1-1.43-.45,3.44,3.44,0,0,1-1.68-2.16,3.77,3.77,0,0,1-.12-1.4,3.3,3.3,0,0,1,.45-1.26,3.64,3.64,0,0,1,1-1.13A4.56,4.56,0,0,1,11.05,131.3Zm.36,1.12a4.22,4.22,0,0,0-1.24.56,2.68,2.68,0,0,0-.88,1,1.94,1.94,0,0,0-.24.76,2.45,2.45,0,0,0,.45,1.64,2.33,2.33,0,0,0,.67.55,2.67,2.67,0,0,0,1.13.32,3.72,3.72,0,0,0,1.29-.11,3.89,3.89,0,0,0,1.27-.58,2.52,2.52,0,0,0,.85-1,1.91,1.91,0,0,0,.21-.74,2.44,2.44,0,0,0-.07-.8,2.32,2.32,0,0,0-.38-.79,2,2,0,0,0-.64-.55,2.62,2.62,0,0,0-1.15-.35A3.63,3.63,0,0,0,11.41,132.42Z"/><path class="cls-1" d="M7,125.4c.12.25.32.63.63,1.14s.69,1.08,1.16,1.73l.72-.13,1.2-.22c.57-.1,1.24-.24,2-.39l1.3-.27.21,1.14-.81.14-2.34.42-1.87.36L7,129.77l-.2-1.12,1.09-.2h0A15.5,15.5,0,0,1,6.78,127a8.61,8.61,0,0,1-.7-1.18Z"/><path class="cls-1" d="M13.14,121.6l.13,1.15-2,.2-3.75.41-2.08.24L2.6,124l-.13-1.15,3-.31,2-.22,3.14-.37Zm-.73-5.19.71.62c-1,1.19-1.81,2.26-2.53,3.19l-1.18,1.54h0l-1.72-1.35c-1-.8-1.87-1.45-2.52-1.94l.65-.78,2,1.61,1.3,1.06h0C10.41,118.77,11.52,117.46,12.41,116.41Z"/><ellipse class="cls-2" cx="115.53" cy="107.47" rx="86.46" ry="82.81"/><path class="cls-3" d="M179,162.33a162.77,162.77,0,0,0,6.24-28.54c.9-7.1,3.28-25.95-1.7-28.16-3.43-1.52-6.9,6.38-12.33,5.16s-8-10.55-9.35-15.49c-1.43-5.21-3.49-12.75-.43-19.71S169.5,69.17,172,63.15c1.49-3.63,2.09-9.69-3-20A89,89,0,0,1,184.9,60.3c4.82,6.83,17.32,25.1,16.36,50.71C200.21,139.15,183.62,157.54,179,162.33Z"/><path class="cls-4" d="M107.79,26.37l.48,7.54c0,3.13-.6,8.1-3.92,12.11-6.78,8.17-17.93,3.77-24.73,12.11-3,3.68-1.31,5.13-5.78,15.11A84.46,84.46,0,0,1,66.4,86.5,17.38,17.38,0,0,0,60,80.37a16.86,16.86,0,0,0-8.57-2.18A37.76,37.76,0,0,0,49.09,95c.41,5,.81,11.24,5.15,16.21,4.59,5.27,11.11,6.28,20.07,7.53,12.07,1.69,12.72-1,22.53.47,10.74,1.62,18.6,6.16,25.81,10.33a102.71,102.71,0,0,1,16.9,12.2,102.85,102.85,0,0,1-36.91,47.06l-12.86-2.49a56.58,56.58,0,0,0-3.3-18.47c-2.56-7.16-4.11-13-9.32-14.94-3.19-1.21-7.1-1.2-9.35-3.76-2.52-2.86-2-6.35-2.34-9.84-.6-5.47-3.42-8.63-12.28-18.68C33.85,98.73,31.84,96.31,31.58,91.7c-.23-4.08,1.59-8.15,5.24-16.28A83.33,83.33,0,0,1,48,56.79,83.71,83.71,0,0,1,81.35,32.41,86,86,0,0,1,107.79,26.37Z"/></svg>